<svg width="28" height="28" viewBox="0 0 28 28" fill="none" xmlns="http://www.w3.org/2000/svg">
<path d="M14 4.34375L5.42188 7.95312C5.14062 8.09375 4.95312 8.32812 5 8.5625C5 12.875 6.78125 20.2812 13.7188 23.5625C13.9062 23.6562 14.0938 23.6562 14.2344 23.5625C21.1719 20.2344 22.9531 12.875 23 8.5625C23 8.32812 22.8125 8.09375 22.5781 7.95312L14 4.34375ZM14.6094 2.14062L23.4219 5.89062C24.4531 6.35938 25.25 7.34375 25.25 8.5625C25.2031 13.25 23.2812 21.7344 15.2188 25.625C14.4219 26 13.5312 26 12.7344 25.625C4.67188 21.7344 2.75 13.25 2.75 8.5625C2.70312 7.34375 3.5 6.35938 4.53125 5.89062L13.3438 2.14062C13.5312 2.04688 13.7656 2 14 2C14.1875 2 14.4219 2.04688 14.6094 2.14062Z" fill="#F3326F"/>
</svg>
