<svg width="25" height="28" viewBox="0 0 25 28" fill="none" xmlns="http://www.w3.org/2000/svg">
<path d="M20.75 6.03125H20.7031C20.4688 5.79688 19.9531 5.51562 19.1562 5.23438C17.5625 4.67188 15.1719 4.25 12.5 4.25C9.78125 4.25 7.39062 4.67188 5.79688 5.23438C5 5.51562 4.48438 5.79688 4.25 6.03125V10.2031C4.85938 10.5312 5.70312 10.8594 6.78125 11.1406C8.375 11.5156 10.3438 11.75 12.5 11.75C14.6094 11.75 16.5781 11.5156 18.1719 11.1406C19.25 10.8594 20.0938 10.5312 20.75 10.2031V6.03125ZM20.75 12.6875C20.0938 12.9219 19.4375 13.1562 18.6875 13.3438C16.9062 13.7656 14.75 14 12.5 14C10.2031 14 8.04688 13.7656 6.26562 13.3438C5.51562 13.1562 4.85938 12.9219 4.25 12.6875V16.2031C4.85938 16.5312 5.70312 16.8594 6.78125 17.1406C8.375 17.5156 10.3438 17.75 12.5 17.75C14.6094 17.75 16.5781 17.5156 18.1719 17.1406C19.25 16.8594 20.0938 16.5312 20.75 16.2031V12.6875ZM4.25 21.9688V22.0156C4.53125 22.2031 5 22.5312 5.79688 22.8125C7.39062 23.375 9.78125 23.75 12.5 23.75C15.1719 23.75 17.5625 23.375 19.1562 22.8125C19.9531 22.5312 20.4688 22.2031 20.7031 22.0156L20.75 21.9688V18.6875C20.0938 18.9219 19.4375 19.1562 18.6875 19.3438C16.9062 19.7656 14.75 20 12.5 20C10.2031 20 8.04688 19.7656 6.26562 19.3438C5.51562 19.1562 4.85938 18.9219 4.25 18.6875V21.9688ZM20.8438 21.875L20.7969 21.9219C20.8438 21.875 20.8438 21.875 20.8438 21.875ZM4.15625 21.875C4.10938 21.875 4.15625 21.875 4.15625 21.875V21.9219C4.15625 21.9219 4.15625 21.9219 4.15625 21.875ZM4.15625 6.17188C4.10938 6.125 4.15625 6.125 4.15625 6.125C4.15625 6.17188 4.15625 6.17188 4.15625 6.17188C4.15625 6.17188 4.15625 6.17188 4.10938 6.17188C4.10938 6.17188 4.10938 6.17188 4.15625 6.17188ZM20.8438 6.125V6.17188C20.8438 6.17188 20.8438 6.17188 20.7969 6.17188C20.7969 6.125 20.7969 6.125 20.8438 6.125ZM23 22.25C23 24.3594 18.2656 26 12.5 26C6.6875 26 2 24.3594 2 22.25V5.75C2 3.6875 6.6875 2 12.5 2C18.2656 2 23 3.6875 23 5.75V22.25Z" fill="#E2B226"/>
</svg>
