<svg width="34" height="28" viewBox="0 0 34 28" fill="none" xmlns="http://www.w3.org/2000/svg">
<path d="M28.1562 5L27.0781 3.92188C26.6094 3.5 26.6094 2.79688 27.0781 2.375C27.5 1.90625 28.2031 1.90625 28.625 2.375L31.625 5.375C31.8594 5.5625 31.9531 5.84375 31.9531 6.17188C31.9531 6.45312 31.8594 6.73438 31.625 6.96875L28.625 9.96875C28.2031 10.3906 27.5 10.3906 27.0781 9.96875C26.6094 9.5 26.6094 8.79688 27.0781 8.375L28.1562 7.29688H25.1094H9.5V8.04688C9.5 9.6875 8.14062 11.0469 6.5 11.0469H5.75V15.4062L4.34375 16.7656L3.5 17.6562V8C3.5 6.35938 4.8125 5 6.5 5H19.9531H20H28.1562ZM28.25 17V12.6406L29.6094 11.2812L30.5 10.3906V20C30.5 21.6875 29.1406 23 27.5 23H8.84375H5.79688L6.875 24.0781C7.34375 24.5469 7.34375 25.25 6.875 25.6719C6.45312 26.1406 5.75 26.1406 5.32812 25.6719L2.32812 22.6719C2.09375 22.4844 2 22.2031 2 21.875C2 21.5938 2.09375 21.3125 2.32812 21.0781L5.32812 18.0781C5.75 17.6562 6.45312 17.6562 6.875 18.0781C7.34375 18.5469 7.34375 19.25 6.875 19.6719L5.79688 20.75H14H24.5V20C24.5 18.3594 25.8125 17 27.5 17H28.25ZM17 9.5C18.5938 9.5 20.0469 10.3906 20.8906 11.75C21.6875 13.1562 21.6875 14.8906 20.8906 16.25C20.0469 17.6562 18.5938 18.5 17 18.5C15.3594 18.5 13.9062 17.6562 13.0625 16.25C12.2656 14.8906 12.2656 13.1562 13.0625 11.75C13.9062 10.3906 15.3594 9.5 17 9.5Z" fill="#23A36D"/>
</svg>
