<svg width="31" height="28" viewBox="0 0 31 28" fill="none" xmlns="http://www.w3.org/2000/svg">
<path d="M16.3438 4.34375C14.2812 3.92188 12.3125 5.14062 11.8438 7.15625C11.4688 8.79688 12.1719 10.3906 13.4844 11.1875C13.7188 11.375 13.9062 11.6094 14 11.8906C14.0469 12.2188 14 12.5 13.8594 12.7344L9.96875 18.9688C10.1562 19.2969 10.25 19.625 10.25 20C10.25 21.2656 9.21875 22.25 8 22.25C6.73438 22.25 5.75 21.2656 5.75 20C5.75 18.7812 6.73438 17.75 8 17.75H8.04688L11.4219 12.4062C9.875 11 9.125 8.84375 9.64062 6.6875C10.3906 3.45312 13.5781 1.4375 16.8125 2.1875C19.9062 2.89062 21.875 5.84375 21.4062 8.9375C21.3125 9.54688 20.75 9.96875 20.1406 9.875C19.5312 9.78125 19.1094 9.21875 19.2031 8.60938C19.4844 6.6875 18.2656 4.8125 16.3438 4.34375ZM15.5 7.25C15.0781 7.25 14.75 7.625 14.75 8C14.75 8.42188 15.0781 8.75 15.5 8.75C15.875 8.75 16.25 8.42188 16.25 8C16.25 7.625 15.875 7.25 15.5 7.25ZM17.4688 9.07812L20.7969 14.4219C22.9531 13.5781 25.4844 14.0469 27.2188 15.7812C29.5625 18.125 29.5625 21.9219 27.2188 24.2656C25.2031 26.2812 22.1094 26.5625 19.8125 25.1094C19.25 24.7812 19.1094 24.0781 19.4375 23.5625C19.7656 23.0469 20.4688 22.8594 20.9844 23.1875C22.4375 24.125 24.3594 23.9375 25.625 22.6719C27.0781 21.2188 27.0781 18.8281 25.625 17.375C24.3594 16.1094 22.4375 15.9219 20.9844 16.8594C20.75 17 20.4219 17.0469 20.1406 17C19.8594 16.9062 19.5781 16.7188 19.4375 16.4844L15.5469 10.25H15.5C14.2344 10.25 13.25 9.26562 13.25 8C13.25 6.78125 14.2344 5.75 15.5 5.75C16.7188 5.75 17.75 6.78125 17.75 8C17.75 8.42188 17.6562 8.75 17.4688 9.07812ZM7.25 20C7.25 20.4219 7.57812 20.75 8 20.75C8.375 20.75 8.75 20.4219 8.75 20C8.75 19.625 8.375 19.25 8 19.25C7.57812 19.25 7.25 19.625 7.25 20ZM22.25 20C22.25 20.4219 22.5781 20.75 23 20.75C23.375 20.75 23.75 20.4219 23.75 20C23.75 19.625 23.375 19.25 23 19.25C22.5781 19.25 22.25 19.625 22.25 20ZM25.25 20C25.25 21.2656 24.2188 22.25 23 22.25C22.1562 22.25 21.4062 21.8281 21.0312 21.125H13.8594C13.4375 23.4219 11.7031 25.2969 9.3125 25.8594C6.07812 26.6094 2.89062 24.5938 2.14062 21.3594C1.48438 18.4531 3.03125 15.5938 5.65625 14.4688C6.26562 14.2344 6.92188 14.5156 7.15625 15.0781C7.39062 15.6406 7.10938 16.2969 6.54688 16.5781C4.85938 17.2344 3.92188 19.0625 4.34375 20.8438C4.8125 22.8594 6.78125 24.125 8.84375 23.6562C10.5781 23.2812 11.75 21.7344 11.75 20C11.75 19.7188 11.8438 19.4375 12.0781 19.2031C12.2656 19.0156 12.5469 18.875 12.875 18.875H21.0312C21.4062 18.2188 22.1562 17.75 23 17.75C24.2188 17.75 25.25 18.7812 25.25 20Z" fill="#1D7AFC"/>
</svg>
