<svg width="36" height="32" viewBox="0 0 36 32" fill="none" xmlns="http://www.w3.org/2000/svg">
<path d="M16.5 6.25C16.0781 6.25 15.75 6.625 15.75 7V25C15.75 25.4219 16.0781 25.75 16.5 25.75H28.5C28.875 25.75 29.25 25.4219 29.25 25V7C29.25 6.625 28.875 6.25 28.5 6.25H16.5ZM13.5 7C13.5 5.35938 14.8125 4 16.5 4H28.5C30.1406 4 31.5 5.35938 31.5 7V25C31.5 26.6875 30.1406 28 28.5 28H16.5C14.8125 28 13.5 26.6875 13.5 25V7ZM9 7.375C9 6.76562 9.46875 6.25 10.125 6.25C10.7344 6.25 11.25 6.76562 11.25 7.375V24.625C11.25 25.2812 10.7344 25.75 10.125 25.75C9.46875 25.75 9 25.2812 9 24.625V7.375ZM4.5 9.625C4.5 9.01562 4.96875 8.5 5.625 8.5C6.23438 8.5 6.75 9.01562 6.75 9.625V22.375C6.75 23.0312 6.23438 23.5 5.625 23.5C4.96875 23.5 4.5 23.0312 4.5 22.375V9.625Z" fill="#8270DB"/>
</svg>
