<svg width="29" height="28" viewBox="0 0 29 28" fill="none" xmlns="http://www.w3.org/2000/svg">
<path d="M22.75 5.46875L22.2344 5.98438C19.5625 8.65625 16 10.1562 12.25 10.25V16.25V16.2969C16 16.3438 19.5625 17.8906 22.2344 20.5625L22.75 21.0781V5.46875ZM10 8H11.875C15.1562 8 18.2969 6.73438 20.6406 4.39062L22.4219 2.60938C23.3594 1.67188 25 2.32812 25 3.6875V10.4375C25.8438 10.8594 26.5 11.9844 26.5 13.25C26.5 14.5625 25.8438 15.6875 25 16.1094V22.8594C25 24.2188 23.3594 24.875 22.4219 23.9375L20.6406 22.1562C18.3906 19.9062 15.3906 18.5938 12.25 18.5469V23.375C12.25 24.8281 11.0312 26 9.625 26H8.125C6.67188 26 5.5 24.8281 5.5 23.375V18.5C3.8125 18.5 2.5 17.1875 2.5 15.5V11C2.5 9.35938 3.8125 8 5.5 8H10ZM7.75 18.5V23.375C7.75 23.6094 7.89062 23.75 8.125 23.75H9.625C9.8125 23.75 10 23.6094 10 23.375V18.5H7.75ZM5.5 10.25C5.07812 10.25 4.75 10.625 4.75 11V15.5C4.75 15.9219 5.07812 16.25 5.5 16.25H7.75H10V10.25H5.5Z" fill="#FA5056"/>
</svg>
