<svg width="60" height="61" viewBox="0 0 60 61" fill="none" xmlns="http://www.w3.org/2000/svg">
<path d="M60 30.5C60 47.1406 46.5234 60.5 30 60.5C13.3594 60.5 0 47.1406 0 30.5C0 13.9766 13.3594 0.5 30 0.5C46.5234 0.5 60 13.9766 60 30.5ZM22.0312 17.8438C21.0938 18.3125 20.625 19.25 20.625 20.1875V40.8125C20.625 41.8672 21.0938 42.8047 22.0312 43.2734C22.8516 43.8594 24.0234 43.7422 24.8438 43.2734L41.7188 32.9609C42.5391 32.375 43.125 31.5547 43.125 30.5C43.125 29.5625 42.5391 28.625 41.7188 28.1562L24.8438 17.8438C24.0234 17.2578 22.8516 17.2578 22.0312 17.7266V17.8438Z" fill="#175CFF"/>
</svg>
